<?xml version="1.0" standalone="no"?>
<!DOCTYPE svg PUBLIC "-//W3C//DTD SVG 20010904//EN"
 "http://www.w3.org/TR/2001/REC-SVG-20010904/DTD/svg10.dtd">
<svg version="1.0" xmlns="http://www.w3.org/2000/svg"
 width="628.000000pt" height="628.000000pt" viewBox="0 0 628.000000 628.000000"
 preserveAspectRatio="xMidYMid meet">
<metadata>
Created by potrace 1.14, written by Peter Selinger 2001-2017
</metadata>
<g transform="translate(0.000000,628.000000) scale(0.100000,-0.100000)"
fill="#000000" stroke="none">
<path d="M5618 5124 c-2 -1 -32 -5 -68 -8 -36 -4 -76 -8 -90 -11 -14 -2 -38
-6 -55 -9 -16 -3 -45 -9 -64 -15 -18 -6 -36 -10 -40 -9 -3 1 -13 -1 -21 -5 -8
-3 -37 -13 -65 -23 -80 -29 -221 -102 -267 -140 -56 -45 -168 -156 -168 -167
0 -4 -9 -18 -20 -30 -23 -24 -90 -159 -109 -219 -14 -43 -14 -43 -33 -25 -28
27 -212 105 -268 114 -8 1 -33 7 -55 13 -22 6 -51 13 -65 16 -14 2 -50 10 -80
16 -30 6 -62 12 -70 13 -8 1 -33 5 -55 8 -225 36 -465 51 -805 51 -207 0 -455
-8 -455 -13 0 -1 -34 -3 -75 -6 -80 -4 -179 -13 -220 -20 -14 -2 -50 -7 -80
-10 -30 -3 -64 -9 -75 -12 -11 -3 -31 -7 -45 -9 -14 -2 -36 -5 -50 -8 -14 -2
-43 -7 -64 -10 -166 -27 -401 -107 -491 -167 -41 -28 -55 -29 -55 -3 0 31 -93
202 -140 257 -41 48 -154 157 -164 157 -3 0 -25 13 -49 30 -85 57 -287 134
-382 146 -22 3 -46 7 -53 10 -31 10 -155 18 -267 16 -166 -1 -183 -3 -196 -19
-12 -14 -13 -573 -3 -1438 3 -225 5 -416 4 -422 0 -7 0 -19 -1 -25 0 -7 2 -51
5 -98 19 -308 112 -545 298 -761 55 -65 194 -188 222 -198 6 -2 13 -7 16 -11
6 -10 133 -84 140 -83 3 1 12 -5 20 -12 8 -7 17 -13 20 -13 3 0 23 -7 45 -17
49 -20 182 -65 210 -71 51 -10 184 -34 217 -38 32 -5 84 -27 350 -150 32 -14
84 -38 115 -52 32 -15 90 -41 128 -59 39 -18 93 -43 120 -55 28 -13 96 -45
153 -72 56 -26 104 -48 107 -48 2 0 53 -23 112 -51 59 -28 155 -73 213 -99 58
-26 131 -60 164 -75 67 -31 85 -35 146 -39 58 -3 96 7 195 55 44 21 84 38 89
38 5 -1 12 3 15 8 3 5 40 25 81 45 41 20 291 143 555 274 264 131 482 238 485
239 3 0 39 18 80 39 68 35 105 46 260 72 19 3 43 10 53 15 9 5 17 8 17 5 0 -8
162 53 240 91 186 90 372 248 484 410 32 45 56 84 55 85 -2 2 9 24 24 49 37
62 73 157 97 250 35 136 41 205 40 429 -3 397 -8 598 -14 608 -3 6 -2 13 4 17
6 4 8 11 4 16 -3 5 -7 114 -9 242 -5 280 -15 747 -20 876 -2 51 -8 98 -13 103
-8 8 -256 20 -264 12z m-913 -1418 c33 -10 62 -21 63 -26 2 -6 12 -10 23 -10
10 0 19 -4 19 -9 0 -5 8 -12 18 -15 52 -17 159 -150 196 -246 43 -108 55 -299
27 -415 -34 -140 -142 -285 -257 -347 -147 -79 -360 -72 -499 17 -205 131
-290 381 -230 678 9 46 37 109 73 165 37 59 126 149 157 158 11 4 27 12 35 19
8 7 46 22 85 32 83 23 202 23 290 -1z m-2855 -28 c124 -32 214 -93 284 -192
56 -79 81 -136 102 -231 9 -41 10 -221 2 -270 -24 -145 -101 -270 -220 -360
-58 -44 -160 -76 -255 -80 -147 -6 -257 33 -360 129 -114 106 -174 252 -175
426 -1 146 10 198 62 305 42 88 111 167 190 216 34 21 109 50 145 56 17 3 31
6 33 8 4 4 172 -2 192 -7z"/>
</g>
</svg>
