<?xml version="1.0" standalone="no"?>
<!DOCTYPE svg PUBLIC "-//W3C//DTD SVG 20010904//EN"
 "http://www.w3.org/TR/2001/REC-SVG-20010904/DTD/svg10.dtd">
<svg version="1.0" xmlns="http://www.w3.org/2000/svg"
 width="1991.000000pt" height="1991.000000pt" viewBox="0 0 1991.000000 1991.000000"
 preserveAspectRatio="xMidYMid meet">
<metadata>
Created by potrace 1.14, written by Peter Selinger 2001-2017
</metadata>
<g transform="translate(0.000000,1991.000000) scale(0.100000,-0.100000)"
fill="#000000" stroke="none">
<path d="M18997 17044 c-1 -1 -67 -5 -147 -8 -80 -4 -161 -8 -180 -10 -19 -2
-71 -7 -114 -11 -43 -4 -86 -8 -95 -10 -9 -1 -45 -6 -81 -10 -36 -4 -74 -9
-85 -11 -23 -4 -89 -15 -125 -19 -20 -3 -220 -43 -300 -60 -187 -40 -469 -127
-669 -207 -624 -248 -1133 -640 -1474 -1135 -176 -256 -321 -553 -413 -844
-14 -43 -28 -79 -33 -79 -4 0 -16 8 -27 18 -100 93 -393 236 -684 335 -110 37
-341 106 -410 122 -14 4 -82 21 -185 46 -22 5 -49 11 -60 14 -11 2 -50 11 -86
19 -67 16 -363 74 -409 81 -14 1 -52 8 -85 14 -74 13 -109 19 -160 26 -22 4
-51 8 -65 10 -137 22 -310 44 -540 71 -25 3 -61 7 -80 9 -19 2 -62 7 -95 10
-33 3 -80 8 -105 11 -25 2 -70 7 -100 9 -30 2 -84 7 -120 10 -36 2 -87 7 -115
10 -27 3 -90 7 -140 10 -49 3 -117 8 -150 10 -88 6 -268 16 -360 20 -44 2
-168 7 -275 11 -243 10 -1307 10 -1570 1 -301 -11 -541 -22 -690 -32 -47 -4
-112 -8 -145 -10 -90 -6 -224 -16 -275 -20 -25 -2 -81 -7 -125 -10 -44 -3 -96
-8 -115 -10 -19 -2 -64 -7 -100 -10 -36 -3 -81 -8 -100 -10 -19 -2 -64 -7
-100 -10 -36 -4 -76 -8 -90 -10 -14 -2 -50 -6 -80 -10 -30 -3 -91 -11 -135
-16 -107 -14 -131 -17 -190 -24 -27 -4 -57 -8 -65 -10 -8 -2 -36 -7 -62 -10
-62 -7 -90 -11 -268 -40 -118 -19 -142 -23 -205 -35 -27 -5 -68 -12 -90 -16
-22 -3 -58 -9 -80 -14 -22 -5 -56 -12 -75 -15 -19 -3 -55 -11 -80 -16 -25 -6
-56 -13 -70 -15 -23 -5 -187 -41 -220 -49 -8 -2 -55 -13 -105 -24 -49 -12
-112 -28 -140 -36 -27 -8 -93 -26 -145 -40 -382 -107 -757 -255 -960 -379 -69
-43 -166 -111 -188 -133 -16 -15 -32 -8 -32 13 0 25 -109 292 -171 419 -57
117 -141 264 -202 355 -37 56 -159 223 -168 230 -3 3 -37 41 -76 85 -111 126
-214 227 -323 315 -30 25 -63 53 -74 62 -11 10 -38 30 -60 45 -23 15 -43 31
-46 34 -23 30 -295 190 -465 274 -219 108 -395 178 -618 245 -123 37 -387 102
-467 115 -19 3 -57 10 -85 15 -27 5 -68 12 -90 15 -22 2 -49 6 -60 9 -11 2
-45 7 -76 10 -31 4 -66 8 -77 11 -10 2 -57 6 -103 10 -46 4 -100 8 -119 10
-217 22 -695 22 -945 0 -224 -20 -259 -29 -287 -77 -10 -19 -13 -262 -12
-1223 1 -660 4 -1549 8 -1975 34 -3795 34 -3807 52 -4020 5 -58 29 -266 39
-330 7 -52 17 -116 21 -135 12 -63 16 -84 24 -120 5 -22 16 -74 25 -115 42
-191 132 -468 222 -690 49 -118 200 -413 282 -549 120 -197 246 -373 400 -556
138 -165 404 -427 560 -551 13 -10 38 -31 55 -45 147 -122 438 -315 661 -436
76 -42 343 -173 351 -173 2 0 32 -13 66 -29 83 -37 333 -131 351 -131 7 0 17
-3 21 -7 3 -4 12 -8 19 -9 7 -2 57 -17 112 -34 303 -94 769 -186 1038 -206 62
-5 96 -14 160 -44 45 -21 159 -73 252 -115 94 -43 226 -104 294 -136 68 -33
125 -59 127 -59 4 0 73 -31 204 -93 41 -19 154 -71 250 -115 96 -44 219 -101
273 -126 54 -25 99 -46 101 -46 2 0 46 -20 97 -44 76 -36 530 -244 779 -358
30 -14 84 -39 120 -56 36 -16 115 -52 175 -80 61 -27 151 -69 200 -92 50 -23
162 -75 250 -115 144 -65 538 -247 735 -338 77 -35 146 -67 248 -113 31 -15
99 -46 151 -70 51 -24 95 -44 97 -44 1 0 55 -25 119 -55 65 -30 118 -55 120
-55 2 0 147 -67 270 -125 179 -84 362 -165 385 -170 8 -2 40 -10 70 -18 139
-40 357 -42 515 -7 118 26 137 36 1270 595 231 114 555 274 720 355 165 81
489 241 720 355 231 114 564 278 740 365 176 87 496 244 710 350 215 106 399
196 410 201 11 5 27 13 35 18 8 6 185 93 393 195 267 131 392 187 425 191 26
3 58 8 72 10 14 2 44 7 67 10 61 8 94 13 128 20 17 3 44 7 60 10 17 3 41 7 55
10 14 3 36 7 50 10 55 11 76 15 95 20 11 2 59 13 106 24 213 50 523 149 749
241 151 61 487 227 614 304 60 36 113 66 118 66 4 0 8 4 8 8 0 5 12 14 26 21
14 6 81 50 149 97 834 579 1432 1410 1706 2371 39 138 55 204 79 328 6 28 12
61 15 75 9 43 44 282 50 345 4 33 8 76 10 95 23 213 23 418 0 1710 -3 135 -7
385 -10 555 -5 315 -10 598 -20 1120 -3 160 -8 394 -10 520 -9 453 -15 804
-20 1015 -2 118 -7 341 -10 495 -3 154 -8 361 -10 460 -3 99 -7 290 -10 425
-9 374 -20 726 -30 963 -7 149 -24 171 -145 181 -155 14 -613 28 -623 20z
m-3877 -4988 c89 -5 187 -18 299 -41 154 -31 388 -130 542 -230 421 -272 732
-763 819 -1295 7 -41 14 -84 16 -95 2 -11 6 -42 9 -70 3 -27 7 -72 10 -100 12
-109 6 -430 -10 -535 -2 -14 -6 -45 -10 -70 -5 -38 -25 -144 -39 -215 -10 -47
-59 -205 -83 -265 -79 -201 -184 -378 -318 -539 -279 -336 -683 -556 -1115
-608 -84 -10 -398 -10 -473 0 -113 15 -261 49 -372 87 -101 34 -315 147 -415
218 -94 66 -283 245 -352 332 -210 266 -370 639 -414 965 -3 28 -8 59 -10 70
-13 60 -19 194 -19 385 1 189 4 258 20 360 2 14 6 41 9 60 22 151 80 353 132
468 13 29 24 58 24 65 0 7 4 17 9 23 4 5 26 43 47 84 195 378 522 676 911 831
89 35 285 88 358 96 28 3 53 7 56 9 4 2 58 7 120 10 63 4 116 8 117 10 2 1 9
1 15 -1 7 -2 59 -6 117 -9z m-9982 -140 c411 -42 771 -211 1052 -495 120 -122
145 -151 234 -286 175 -262 278 -547 331 -915 23 -162 23 -589 0 -695 -3 -11
-7 -38 -9 -60 -9 -82 -52 -264 -86 -365 -186 -551 -571 -962 -1078 -1149 -188
-69 -381 -103 -602 -105 -141 -1 -313 8 -329 18 -3 2 -24 7 -46 10 -67 11
-224 56 -304 88 -256 101 -474 255 -672 474 -31 34 -169 220 -169 228 0 3 -12
22 -26 43 -63 92 -192 397 -219 515 -25 117 -44 211 -50 248 -3 25 -8 52 -10
60 -25 98 -25 600 0 730 3 13 7 42 11 65 38 269 154 578 294 788 22 33 40 61
40 63 0 4 5 10 102 129 230 279 556 484 898 565 141 33 172 38 305 47 50 3 91
7 93 8 4 3 181 -4 240 -9z"/>
</g>
</svg>
