<?xml version="1.0" encoding="utf-8"?>
<!-- Generator: Adobe Illustrator 24.0.2, SVG Export Plug-In . SVG Version: 6.00 Build 0)  -->
<svg version="1.1" id="Capa_1" xmlns="http://www.w3.org/2000/svg" xmlns:xlink="http://www.w3.org/1999/xlink" x="0px" y="0px"
	 viewBox="0 0 686.3 159.64" style="enable-background:new 0 0 686.3 159.64;" xml:space="preserve">
<style type="text/css">
	.st0{fill:#00B1DB;}
	.st1{fill:url(#SVGID_1_);}
	.st2{fill:url(#SVGID_2_);}
	.st3{fill:url(#SVGID_3_);}
	.st4{fill:url(#SVGID_4_);}
	.st5{fill:url(#SVGID_5_);}
	.st6{fill:#5FC3DB;}
	.st7{fill:#FAC075;}
	.st8{fill:none;}
	.st9{stroke:#000000;stroke-width:2;stroke-linecap:round;stroke-linejoin:round;stroke-miterlimit:10;}
	.st10{fill:none;stroke:#000000;stroke-width:2;stroke-linecap:round;stroke-linejoin:round;stroke-miterlimit:10;}
	.st11{fill:#1D1D1C;}
	.st12{fill:url(#SVGID_6_);}
	.st13{fill:url(#SVGID_7_);}
	.st14{fill:url(#SVGID_8_);}
	.st15{fill:url(#SVGID_9_);}
	.st16{fill:url(#SVGID_10_);}
	.st17{fill:url(#SVGID_11_);}
	.st18{fill:url(#SVGID_12_);}
	.st19{fill:url(#SVGID_13_);}
	.st20{fill:url(#SVGID_14_);}
	.st21{fill:url(#SVGID_15_);}
	.st22{fill:url(#SVGID_16_);}
	.st23{fill:url(#SVGID_17_);}
	.st24{fill:url(#SVGID_18_);}
	.st25{fill:url(#SVGID_19_);}
	.st26{fill:url(#SVGID_20_);}
	.st27{fill:url(#SVGID_21_);}
	.st28{fill:url(#SVGID_22_);}
	.st29{fill:url(#SVGID_23_);}
	.st30{fill:url(#SVGID_24_);}
	.st31{fill:url(#SVGID_25_);}
	.st32{fill:#FFFFFF;}
	.st33{fill:url(#SVGID_26_);}
	.st34{fill:url(#SVGID_27_);}
	.st35{fill:url(#SVGID_28_);}
	.st36{fill:url(#SVGID_29_);}
	.st37{fill:url(#SVGID_30_);}
	.st38{fill:url(#SVGID_31_);}
</style>
<g>
	<g>
		<path class="st32" d="M165.04,32.72v82.31h-27.75V84.69h-25.63v30.34H83.91V32.72h27.75v29.16h25.63V32.72H165.04z"/>
		<path class="st32" d="M413.14,94.33h-7.53v20.69h-27.75V32.72h39.63c7.6,0,14.23,1.25,19.87,3.76c5.64,2.51,9.99,6.12,13.05,10.82
			C453.47,52,455,57.49,455,63.76c0,5.88-1.33,11.01-4,15.4c-2.67,4.39-6.51,7.88-11.52,10.47l17.29,25.4h-29.63L413.14,94.33z
			 M424.19,56.64c-1.88-1.68-4.7-2.53-8.47-2.53h-10.11V73.4h10.11c3.76,0,6.58-0.84,8.47-2.53c1.88-1.69,2.82-4.06,2.82-7.11
			S426.07,58.33,424.19,56.64z"/>
		<path class="st32" d="M500.74,94.33h-7.53v20.69h-27.75V32.72h39.63c7.6,0,14.23,1.25,19.87,3.76c5.64,2.51,9.99,6.12,13.05,10.82
			c3.06,4.7,4.59,10.19,4.59,16.46c0,5.88-1.33,11.01-4,15.4c-2.67,4.39-6.51,7.88-11.52,10.47l17.29,25.4h-29.63L500.74,94.33z
			 M511.79,56.64c-1.88-1.68-4.7-2.53-8.47-2.53h-10.11V73.4h10.11c3.76,0,6.58-0.84,8.47-2.53c1.88-1.69,2.82-4.06,2.82-7.11
			S513.67,58.33,511.79,56.64z"/>
		<path class="st32" d="M632.43,32.72v55.15c0,8.47-1.73,15.72-5.17,21.75c-3.45,6.04-8.35,10.6-14.7,13.7
			c-6.35,3.1-13.84,4.64-22.46,4.64c-7.45,0-14.21-0.88-20.28-2.65c-6.08-1.76-11.35-4.21-15.82-7.35l10.11-19.64
			c3.84,2.43,7.9,4.29,12.17,5.58c4.27,1.29,8.45,1.94,12.52,1.94c5.64,0,9.7-1.31,12.17-3.94c2.47-2.63,3.7-6.8,3.7-12.52v-2.35
			c-5.25,5.96-12.27,8.94-21.05,8.94c-10.35,0-18.25-2.92-23.69-8.76c-5.45-5.84-8.17-14.33-8.17-25.46V32.72h27.75v27.04
			c0,4.63,1,8.07,3,10.35c2,2.27,5.07,3.41,9.23,3.41c3.92,0,7.05-1.16,9.41-3.47c2.35-2.31,3.53-6.06,3.53-11.23v-26.1H632.43z"/>
	</g>
	<radialGradient id="SVGID_1_" cx="274.675" cy="79.8217" r="75.4317" gradientUnits="userSpaceOnUse">
		<stop  offset="0" style="stop-color:#F7C185"/>
		<stop  offset="0.4688" style="stop-color:#F6B976"/>
		<stop  offset="1" style="stop-color:#F5AE5F"/>
	</radialGradient>
	<path class="st1" d="M360.27,18.81c-0.06-0.34-0.33-0.61-0.67-0.65c-0.31-0.04-31.05-3.8-38.34,20.84
		c-4.82-4.25-22.44-8.07-47.03-7.73c-24.59,0.34-42.1,4.64-46.8,9.01c-7.96-24.43-38.58-19.84-38.9-19.79
		c-0.34,0.05-0.61,0.33-0.66,0.67c-0.29,2.17,0.34,59.29,0.35,59.85c0.03,2.07,0.22,4.19,0.56,6.3c0.83,5.11,2.6,9.85,5.26,14.08
		c3.76,5.97,8.97,10.67,15.5,13.96c3.72,1.88,7.8,3.22,12.13,3.99c1.47,0.26,2.98,0.46,4.5,0.6l45.46,20.9
		c1.27,0.58,2.62,0.87,3.97,0.87c1.44,0,2.87-0.33,4.2-0.98l44.87-22.13c1.53-0.18,3.03-0.42,4.49-0.72
		c4.31-0.89,8.35-2.35,12.02-4.32c6.43-3.47,11.52-8.31,15.11-14.38c2.55-4.31,4.19-9.09,4.88-14.22c0.28-2.11,0.41-4.24,0.38-6.32
		C361.55,78.08,360.61,20.93,360.27,18.81z M304.85,69.95c1.38-2.68,3.28-4.79,5.64-6.26c2.36-1.47,5.06-2.24,8.02-2.28
		c0.08,0,0.16,0,0.24,0c2.86,0,5.5,0.69,7.84,2.06c2.4,1.41,4.36,3.47,5.81,6.11c1.46,2.65,2.22,5.83,2.27,9.44
		c0.05,3.61-0.63,6.81-2.01,9.5c-1.38,2.68-3.27,4.79-5.64,6.26c-2.36,1.47-5.06,2.24-8.02,2.28c-2.95,0.05-5.68-0.65-8.08-2.06
		c-2.4-1.41-4.36-3.46-5.81-6.11c-1.46-2.65-2.22-5.83-2.27-9.44C302.79,75.84,303.46,72.64,304.85,69.95z M246.93,80.21
		c0.05,3.61-0.63,6.81-2.01,9.5c-1.38,2.68-3.27,4.79-5.64,6.26c-2.36,1.47-5.06,2.24-8.02,2.28c-2.94,0.07-5.68-0.65-8.08-2.06
		c-2.4-1.41-4.36-3.47-5.81-6.11c-1.46-2.65-2.22-5.83-2.27-9.44c-0.05-3.61,0.63-6.81,2.01-9.5c1.38-2.68,3.27-4.78,5.64-6.26
		c2.36-1.47,5.06-2.24,8.02-2.28c0.08,0,0.16,0,0.25,0c2.86,0,5.5,0.69,7.83,2.06c2.4,1.41,4.36,3.47,5.81,6.11
		C246.12,73.43,246.88,76.6,246.93,80.21z"/>
</g>
</svg>
