<?xml version="1.0" encoding="utf-8"?>
<!-- Generator: Adobe Illustrator 24.0.2, SVG Export Plug-In . SVG Version: 6.00 Build 0)  -->
<svg version="1.1" id="Capa_1" xmlns="http://www.w3.org/2000/svg" xmlns:xlink="http://www.w3.org/1999/xlink" x="0px" y="0px"
	 viewBox="0 0 686.3 176.85" style="enable-background:new 0 0 686.3 176.85;" xml:space="preserve">
<style type="text/css">
	.st0{fill:#5FC3DB;}
	.st1{fill:#FAC075;}
	.st2{fill:none;}
	.st3{stroke:#000000;stroke-width:2;stroke-linecap:round;stroke-linejoin:round;stroke-miterlimit:10;}
	.st4{fill:none;stroke:#000000;stroke-width:2;stroke-linecap:round;stroke-linejoin:round;stroke-miterlimit:10;}
	.st5{fill:#1D1D1C;}
	.st6{fill:url(#SVGID_1_);}
	.st7{fill:url(#SVGID_2_);}
	.st8{fill:url(#SVGID_3_);}
	.st9{fill:url(#SVGID_4_);}
	.st10{fill:url(#SVGID_5_);}
	.st11{fill:url(#SVGID_6_);}
	.st12{fill:url(#SVGID_7_);}
	.st13{fill:url(#SVGID_8_);}
	.st14{fill:url(#SVGID_9_);}
	.st15{fill:url(#SVGID_10_);}
	.st16{fill:url(#SVGID_11_);}
	.st17{fill:url(#SVGID_12_);}
	.st18{fill:url(#SVGID_13_);}
	.st19{fill:url(#SVGID_14_);}
	.st20{fill:url(#SVGID_15_);}
	.st21{fill:url(#SVGID_16_);}
	.st22{fill:url(#SVGID_17_);}
	.st23{fill:url(#SVGID_18_);}
	.st24{fill:url(#SVGID_19_);}
	.st25{fill:url(#SVGID_20_);}
	.st26{fill:#FFFFFF;}
	.st27{fill:url(#SVGID_21_);}
	.st28{fill:url(#SVGID_22_);}
	.st29{fill:url(#SVGID_23_);}
	.st30{fill:url(#SVGID_24_);}
	.st31{fill:url(#SVGID_25_);}
	.st32{fill:url(#SVGID_26_);}
	.st33{fill:url(#SVGID_27_);}
	.st34{fill:url(#SVGID_28_);}
	.st35{fill:url(#SVGID_29_);}
	.st36{fill:url(#SVGID_30_);}
</style>
<g>
	<linearGradient id="SVGID_1_" gradientUnits="userSpaceOnUse" x1="138.9113" y1="118.7391" x2="138.9113" y2="46.8054">
		<stop  offset="0" style="stop-color:#5EA8C2"/>
		<stop  offset="0.2593" style="stop-color:#50ABCA"/>
		<stop  offset="1" style="stop-color:#00B1DB"/>
	</linearGradient>
	<path class="st6" d="M174.36,46.81v71.93h-24.25V92.23h-22.4v26.51h-24.25V46.81h24.25v25.49h22.4V46.81H174.36z"/>
	<linearGradient id="SVGID_2_" gradientUnits="userSpaceOnUse" x1="394.8372" y1="118.7391" x2="394.8372" y2="46.8054">
		<stop  offset="0" style="stop-color:#5EA8C2"/>
		<stop  offset="0.2593" style="stop-color:#50ABCA"/>
		<stop  offset="1" style="stop-color:#00B1DB"/>
	</linearGradient>
	<path class="st7" d="M391.19,100.65h-6.58v18.09h-24.25V46.81h34.63c6.64,0,12.43,1.1,17.37,3.29c4.93,2.19,8.73,5.34,11.41,9.45
		c2.67,4.11,4.01,8.91,4.01,14.39c0,5.14-1.17,9.63-3.49,13.46c-2.33,3.84-5.69,6.88-10.07,9.15l15.11,22.2h-25.9L391.19,100.65z
		 M400.85,67.72c-1.64-1.47-4.11-2.21-7.4-2.21h-8.84v16.85h8.84c3.29,0,5.75-0.74,7.4-2.21c1.64-1.47,2.47-3.55,2.47-6.22
		C403.31,71.26,402.49,69.19,400.85,67.72z"/>
	<linearGradient id="SVGID_3_" gradientUnits="userSpaceOnUse" x1="471.3944" y1="118.7391" x2="471.3944" y2="46.8054">
		<stop  offset="0" style="stop-color:#5EA8C2"/>
		<stop  offset="0.2593" style="stop-color:#50ABCA"/>
		<stop  offset="1" style="stop-color:#00B1DB"/>
	</linearGradient>
	<path class="st8" d="M467.75,100.65h-6.58v18.09h-24.25V46.81h34.63c6.64,0,12.43,1.1,17.37,3.29c4.93,2.19,8.73,5.34,11.41,9.45
		c2.67,4.11,4.01,8.91,4.01,14.39c0,5.14-1.17,9.63-3.49,13.46c-2.33,3.84-5.69,6.88-10.07,9.15l15.11,22.2h-25.9L467.75,100.65z
		 M477.41,67.72c-1.64-1.47-4.11-2.21-7.4-2.21h-8.84v16.85h8.84c3.29,0,5.75-0.74,7.4-2.21c1.64-1.47,2.47-3.55,2.47-6.22
		C479.87,71.26,479.05,69.19,477.41,67.72z"/>
	<linearGradient id="SVGID_4_" gradientUnits="userSpaceOnUse" x1="547.592" y1="130.0428" x2="547.592" y2="46.8054">
		<stop  offset="0" style="stop-color:#5EA8C2"/>
		<stop  offset="0.2593" style="stop-color:#50ABCA"/>
		<stop  offset="1" style="stop-color:#00B1DB"/>
	</linearGradient>
	<path class="st9" d="M582.84,46.81V95c0,7.4-1.51,13.74-4.52,19.01c-3.02,5.27-7.3,9.26-12.85,11.97
		c-5.55,2.71-12.09,4.06-19.63,4.06c-6.51,0-12.42-0.77-17.73-2.31c-5.31-1.54-9.92-3.68-13.82-6.42l8.84-17.16
		c3.36,2.12,6.9,3.75,10.64,4.88c3.73,1.13,7.38,1.7,10.94,1.7c4.93,0,8.48-1.15,10.64-3.44c2.16-2.29,3.24-5.94,3.24-10.94v-2.06
		c-4.59,5.21-10.72,7.81-18.39,7.81c-9.04,0-15.95-2.55-20.71-7.66c-4.76-5.1-7.14-12.52-7.14-22.25V46.81h24.25v23.64
		c0,4.04,0.87,7.06,2.62,9.04c1.75,1.99,4.43,2.98,8.07,2.98c3.42,0,6.17-1.01,8.22-3.03c2.06-2.02,3.08-5.29,3.08-9.81V46.81
		H582.84z"/>
</g>
</svg>
