<?xml version="1.0" encoding="utf-8"?>
<!-- Generator: Adobe Illustrator 24.0.2, SVG Export Plug-In . SVG Version: 6.00 Build 0)  -->
<svg version="1.1" id="Capa_1" xmlns="http://www.w3.org/2000/svg" xmlns:xlink="http://www.w3.org/1999/xlink" x="0px" y="0px"
	 viewBox="0 0 318.64 285.43" style="enable-background:new 0 0 318.64 285.43;" xml:space="preserve">
<style type="text/css">
	.st0{fill:#5FC3DB;}
	.st1{fill:#FAC075;}
	.st2{fill:none;}
	.st3{stroke:#000000;stroke-width:2;stroke-linecap:round;stroke-linejoin:round;stroke-miterlimit:10;}
	.st4{fill:none;stroke:#000000;stroke-width:2;stroke-linecap:round;stroke-linejoin:round;stroke-miterlimit:10;}
	.st5{fill:#1D1D1C;}
	.st6{fill:url(#SVGID_1_);}
	.st7{fill:url(#SVGID_2_);}
	.st8{fill:url(#SVGID_3_);}
	.st9{fill:url(#SVGID_4_);}
	.st10{fill:url(#SVGID_5_);}
	.st11{fill:url(#SVGID_6_);}
	.st12{fill:url(#SVGID_7_);}
	.st13{fill:url(#SVGID_8_);}
	.st14{fill:url(#SVGID_9_);}
	.st15{fill:url(#SVGID_10_);}
	.st16{fill:url(#SVGID_11_);}
	.st17{fill:url(#SVGID_12_);}
	.st18{fill:url(#SVGID_13_);}
	.st19{fill:url(#SVGID_14_);}
	.st20{fill:url(#SVGID_15_);}
	.st21{fill:url(#SVGID_16_);}
	.st22{fill:url(#SVGID_17_);}
	.st23{fill:url(#SVGID_18_);}
	.st24{fill:url(#SVGID_19_);}
	.st25{fill:url(#SVGID_20_);}
	.st26{fill:#FFFFFF;}
	.st27{fill:url(#SVGID_21_);}
	.st28{fill:url(#SVGID_22_);}
	.st29{fill:url(#SVGID_23_);}
	.st30{fill:url(#SVGID_24_);}
	.st31{fill:url(#SVGID_25_);}
	.st32{fill:url(#SVGID_26_);}
	.st33{fill:url(#SVGID_27_);}
	.st34{fill:url(#SVGID_28_);}
	.st35{fill:url(#SVGID_29_);}
	.st36{fill:url(#SVGID_30_);}
</style>
<radialGradient id="SVGID_1_" cx="159.3192" cy="142.7139" r="65.9232" gradientTransform="matrix(1 0 0 0.9 0 14.2714)" gradientUnits="userSpaceOnUse">
	<stop  offset="0" style="stop-color:#F7C185"/>
	<stop  offset="0.3285" style="stop-color:#F7BA76"/>
	<stop  offset="0.968" style="stop-color:#F6A64D"/>
	<stop  offset="1" style="stop-color:#F6A54A"/>
</radialGradient>
<path class="st6" d="M234.12,89.39c-0.05-0.3-0.29-0.53-0.59-0.57c-0.27-0.04-27.14-3.32-33.51,18.22
	c-4.21-3.71-19.61-7.05-41.1-6.76c-21.49,0.29-36.79,4.05-40.9,7.88c-6.96-21.35-33.72-17.34-34-17.3c-0.3,0.05-0.53,0.29-0.57,0.59
	c-0.25,1.89,0.3,51.81,0.3,52.31c0.02,1.81,0.19,3.67,0.49,5.51c0.72,4.46,2.27,8.61,4.6,12.31c3.28,5.22,7.84,9.32,13.55,12.2
	c3.25,1.64,6.81,2.81,10.6,3.49c1.28,0.23,2.6,0.4,3.94,0.52l39.73,18.26c1.11,0.51,2.29,0.76,3.47,0.76c1.26,0,2.51-0.29,3.67-0.86
	l39.22-19.34c1.33-0.15,2.65-0.37,3.92-0.63c3.77-0.78,7.3-2.05,10.5-3.78c5.62-3.03,10.07-7.26,13.21-12.57
	c2.23-3.76,3.66-7.94,4.26-12.43c0.25-1.85,0.36-3.7,0.34-5.52C235.24,141.19,234.42,91.24,234.12,89.39z M185.69,134.09
	c1.2-2.34,2.86-4.18,4.93-5.47c2.06-1.29,4.42-1.96,7.01-2c0.07,0,0.14,0,0.21,0c2.5,0,4.81,0.61,6.85,1.8
	c2.1,1.24,3.81,3.03,5.07,5.34c1.27,2.32,1.94,5.1,1.99,8.25c0.04,3.16-0.55,5.95-1.76,8.3c-1.2,2.34-2.86,4.18-4.93,5.47
	c-2.06,1.29-4.42,1.96-7.01,1.99c-2.58,0.04-4.97-0.57-7.06-1.8c-2.1-1.23-3.81-3.03-5.07-5.34c-1.27-2.32-1.94-5.09-1.98-8.25
	C183.89,139.23,184.48,136.44,185.69,134.09z M135.07,143.06c0.04,3.16-0.55,5.95-1.76,8.3c-1.2,2.34-2.86,4.18-4.93,5.47
	c-2.06,1.29-4.42,1.96-7.01,2c-2.57,0.06-4.96-0.57-7.06-1.8c-2.1-1.23-3.81-3.03-5.07-5.34c-1.27-2.32-1.94-5.09-1.98-8.25
	c-0.04-3.15,0.55-5.95,1.76-8.3c1.2-2.34,2.86-4.18,4.93-5.47c2.07-1.29,4.42-1.96,7.01-1.99c0.07,0,0.14,0,0.21,0
	c2.5,0,4.81,0.61,6.85,1.8c2.1,1.23,3.81,3.03,5.07,5.34C134.36,137.13,135.03,139.9,135.07,143.06z"/>
</svg>
