<?xml version="1.0" encoding="utf-8"?>
<!-- Generator: Adobe Illustrator 24.0.2, SVG Export Plug-In . SVG Version: 6.00 Build 0)  -->
<svg version="1.1" id="Capa_1" xmlns="http://www.w3.org/2000/svg" xmlns:xlink="http://www.w3.org/1999/xlink" x="0px" y="0px"
	 viewBox="0 0 627.66 562.24" style="enable-background:new 0 0 627.66 562.24;" xml:space="preserve">
<style type="text/css">
	.st0{fill:#5FC3DB;}
	.st1{fill:#FAC075;}
	.st2{fill:none;}
	.st3{stroke:#000000;stroke-width:2;stroke-linecap:round;stroke-linejoin:round;stroke-miterlimit:10;}
	.st4{fill:none;stroke:#000000;stroke-width:2;stroke-linecap:round;stroke-linejoin:round;stroke-miterlimit:10;}
	.st5{fill:#1D1D1C;}
	.st6{fill:url(#SVGID_1_);}
	.st7{fill:url(#SVGID_2_);}
	.st8{fill:url(#SVGID_3_);}
	.st9{fill:url(#SVGID_4_);}
	.st10{fill:url(#SVGID_5_);}
	.st11{fill:url(#SVGID_6_);}
	.st12{fill:url(#SVGID_7_);}
	.st13{fill:url(#SVGID_8_);}
	.st14{fill:url(#SVGID_9_);}
	.st15{fill:url(#SVGID_10_);}
	.st16{fill:url(#SVGID_11_);}
	.st17{fill:url(#SVGID_12_);}
	.st18{fill:url(#SVGID_13_);}
	.st19{fill:url(#SVGID_14_);}
	.st20{fill:url(#SVGID_15_);}
	.st21{fill:url(#SVGID_16_);}
	.st22{fill:url(#SVGID_17_);}
	.st23{fill:url(#SVGID_18_);}
	.st24{fill:url(#SVGID_19_);}
	.st25{fill:url(#SVGID_20_);}
	.st26{fill:#FFFFFF;}
	.st27{fill:url(#SVGID_21_);}
	.st28{fill:url(#SVGID_22_);}
</style>
<radialGradient id="SVGID_1_" cx="313.8298" cy="281.1205" r="242.3213" gradientUnits="userSpaceOnUse">
	<stop  offset="0" style="stop-color:#F7B286"/>
	<stop  offset="0.3059" style="stop-color:#F6A877"/>
	<stop  offset="0.901" style="stop-color:#F28F50"/>
	<stop  offset="1" style="stop-color:#F28A49"/>
</radialGradient>
<path class="st6" d="M588.79,85.11c-0.18-1.1-1.06-1.96-2.17-2.1c-1.01-0.14-99.74-12.2-123.18,66.96
	c-15.47-13.65-72.1-25.92-151.07-24.84c-79,1.08-135.25,14.89-150.34,28.96C136.46,75.6,38.09,90.35,37.07,90.51
	c-1.1,0.18-1.96,1.05-2.11,2.16c-0.93,6.96,1.09,190.46,1.11,192.28c0.09,6.66,0.69,13.47,1.78,20.25
	c2.65,16.41,8.34,31.63,16.91,45.24c12.07,19.17,28.83,34.26,49.79,44.85c11.94,6.03,25.05,10.34,38.97,12.83
	c4.71,0.84,9.57,1.49,14.46,1.92l146.04,67.13c4.07,1.87,8.42,2.81,12.76,2.8c4.62,0,9.23-1.05,13.51-3.16l144.15-71.09
	c4.9-0.57,9.75-1.34,14.41-2.31c13.85-2.87,26.83-7.54,38.6-13.89c20.67-11.15,37.01-26.7,48.55-46.19
	c8.2-13.84,13.47-29.2,15.67-45.68c0.91-6.79,1.32-13.62,1.23-20.29C592.9,275.53,589.89,91.92,588.79,85.11z M410.76,249.41
	c4.43-8.61,10.52-15.38,18.11-20.12c7.58-4.74,16.25-7.2,25.76-7.33c0.26,0,0.52,0,0.78,0c9.2,0,17.67,2.23,25.17,6.63
	c7.72,4.54,14,11.14,18.65,19.62c4.68,8.53,7.14,18.73,7.3,30.33c0.16,11.6-2.02,21.87-6.47,30.52
	c-4.42,8.61-10.52,15.38-18.11,20.12c-7.58,4.74-16.25,7.2-25.76,7.33c-9.49,0.16-18.25-2.1-25.95-6.63
	c-7.72-4.53-13.99-11.13-18.65-19.62c-4.68-8.52-7.14-18.72-7.3-30.33C404.14,268.33,406.32,258.06,410.76,249.41z M224.71,282.38
	c0.16,11.6-2.02,21.87-6.47,30.52c-4.43,8.61-10.52,15.38-18.11,20.12c-7.57,4.74-16.24,7.2-25.76,7.33
	c-9.44,0.21-18.24-2.1-25.95-6.63c-7.72-4.53-13.99-11.13-18.65-19.62c-4.68-8.52-7.13-18.73-7.29-30.33
	c-0.16-11.59,2.02-21.86,6.47-30.52c4.42-8.6,10.52-15.37,18.11-20.12c7.59-4.74,16.26-7.2,25.76-7.33c0.26,0,0.53,0,0.79,0
	c9.2,0,17.66,2.23,25.16,6.63c7.72,4.54,13.99,11.13,18.65,19.62C222.1,260.58,224.55,270.78,224.71,282.38z"/>
</svg>
