<?xml version="1.0" encoding="utf-8"?>
<!-- Generator: Adobe Illustrator 24.0.2, SVG Export Plug-In . SVG Version: 6.00 Build 0)  -->
<svg version="1.1" id="Capa_1" xmlns="http://www.w3.org/2000/svg" xmlns:xlink="http://www.w3.org/1999/xlink" x="0px" y="0px"
	 viewBox="0 0 686.3 159.64" style="enable-background:new 0 0 686.3 159.64;" xml:space="preserve">
<style type="text/css">
	.st0{fill:#5FC3DB;}
	.st1{fill:#FAC075;}
	.st2{fill:none;}
	.st3{stroke:#000000;stroke-width:2;stroke-linecap:round;stroke-linejoin:round;stroke-miterlimit:10;}
	.st4{fill:none;stroke:#000000;stroke-width:2;stroke-linecap:round;stroke-linejoin:round;stroke-miterlimit:10;}
	.st5{fill:#1D1D1C;}
	.st6{fill:url(#SVGID_1_);}
	.st7{fill:url(#SVGID_2_);}
	.st8{fill:url(#SVGID_3_);}
	.st9{fill:url(#SVGID_4_);}
	.st10{fill:url(#SVGID_5_);}
	.st11{fill:url(#SVGID_6_);}
	.st12{fill:url(#SVGID_7_);}
	.st13{fill:url(#SVGID_8_);}
	.st14{fill:url(#SVGID_9_);}
	.st15{fill:url(#SVGID_10_);}
	.st16{fill:url(#SVGID_11_);}
	.st17{fill:url(#SVGID_12_);}
	.st18{fill:url(#SVGID_13_);}
	.st19{fill:url(#SVGID_14_);}
	.st20{fill:url(#SVGID_15_);}
	.st21{fill:url(#SVGID_16_);}
	.st22{fill:url(#SVGID_17_);}
	.st23{fill:url(#SVGID_18_);}
	.st24{fill:url(#SVGID_19_);}
	.st25{fill:url(#SVGID_20_);}
	.st26{fill:#FFFFFF;}
	.st27{fill:url(#SVGID_21_);}
	.st28{fill:url(#SVGID_22_);}
	.st29{fill:url(#SVGID_23_);}
	.st30{fill:url(#SVGID_24_);}
	.st31{fill:url(#SVGID_25_);}
	.st32{fill:url(#SVGID_26_);}
	.st33{fill:url(#SVGID_27_);}
	.st34{fill:url(#SVGID_28_);}
	.st35{fill:url(#SVGID_29_);}
	.st36{fill:url(#SVGID_30_);}
</style>
<g>
	<g>
		<linearGradient id="SVGID_1_" gradientUnits="userSpaceOnUse" x1="138.9113" y1="110.5868" x2="138.9113" y2="38.653">
			<stop  offset="0" style="stop-color:#5EA8C2"/>
			<stop  offset="0.2593" style="stop-color:#50ABCA"/>
			<stop  offset="1" style="stop-color:#00B1DB"/>
		</linearGradient>
		<path class="st6" d="M174.36,38.65v71.93h-24.25V84.07h-22.4v26.51h-24.25V38.65h24.25v25.49h22.4V38.65H174.36z"/>
		<linearGradient id="SVGID_2_" gradientUnits="userSpaceOnUse" x1="394.8372" y1="110.5868" x2="394.8372" y2="38.653">
			<stop  offset="0" style="stop-color:#5EA8C2"/>
			<stop  offset="0.2593" style="stop-color:#50ABCA"/>
			<stop  offset="1" style="stop-color:#00B1DB"/>
		</linearGradient>
		<path class="st7" d="M391.19,92.5h-6.58v18.09h-24.25V38.65h34.63c6.64,0,12.43,1.1,17.37,3.29c4.93,2.19,8.73,5.34,11.41,9.45
			c2.67,4.11,4.01,8.91,4.01,14.39c0,5.14-1.17,9.63-3.49,13.46c-2.33,3.84-5.69,6.88-10.07,9.15l15.11,22.2h-25.9L391.19,92.5z
			 M400.85,59.57c-1.64-1.47-4.11-2.21-7.4-2.21h-8.84v16.85h8.84c3.29,0,5.75-0.74,7.4-2.21c1.64-1.47,2.47-3.55,2.47-6.22
			C403.31,63.11,402.49,61.04,400.85,59.57z"/>
		<linearGradient id="SVGID_3_" gradientUnits="userSpaceOnUse" x1="471.3944" y1="110.5868" x2="471.3944" y2="38.653">
			<stop  offset="0" style="stop-color:#5EA8C2"/>
			<stop  offset="0.2593" style="stop-color:#50ABCA"/>
			<stop  offset="1" style="stop-color:#00B1DB"/>
		</linearGradient>
		<path class="st8" d="M467.75,92.5h-6.58v18.09h-24.25V38.65h34.63c6.64,0,12.43,1.1,17.37,3.29c4.93,2.19,8.73,5.34,11.41,9.45
			c2.67,4.11,4.01,8.91,4.01,14.39c0,5.14-1.17,9.63-3.49,13.46c-2.33,3.84-5.69,6.88-10.07,9.15l15.11,22.2h-25.9L467.75,92.5z
			 M477.41,59.57c-1.64-1.47-4.11-2.21-7.4-2.21h-8.84v16.85h8.84c3.29,0,5.75-0.74,7.4-2.21c1.64-1.47,2.47-3.55,2.47-6.22
			C479.87,63.11,479.05,61.04,477.41,59.57z"/>
		<linearGradient id="SVGID_4_" gradientUnits="userSpaceOnUse" x1="547.592" y1="121.8904" x2="547.592" y2="38.653">
			<stop  offset="0" style="stop-color:#5EA8C2"/>
			<stop  offset="0.2593" style="stop-color:#50ABCA"/>
			<stop  offset="1" style="stop-color:#00B1DB"/>
		</linearGradient>
		<path class="st9" d="M582.84,38.65v48.2c0,7.4-1.51,13.74-4.52,19.01c-3.02,5.27-7.3,9.26-12.85,11.97
			c-5.55,2.71-12.09,4.06-19.63,4.06c-6.51,0-12.42-0.77-17.73-2.31c-5.31-1.54-9.92-3.68-13.82-6.42l8.84-17.16
			c3.36,2.12,6.9,3.75,10.64,4.88c3.73,1.13,7.38,1.7,10.94,1.7c4.93,0,8.48-1.15,10.64-3.44c2.16-2.29,3.24-5.94,3.24-10.94v-2.06
			c-4.59,5.21-10.72,7.81-18.39,7.81c-9.04,0-15.95-2.55-20.71-7.66c-4.76-5.1-7.14-12.52-7.14-22.25V38.65h24.25v23.64
			c0,4.04,0.87,7.06,2.62,9.04c1.75,1.99,4.43,2.98,8.07,2.98c3.42,0,6.17-1.01,8.22-3.03c2.06-2.02,3.08-5.29,3.08-9.81V38.65
			H582.84z"/>
	</g>
	
		<radialGradient id="SVGID_5_" cx="270.1796" cy="79.8217" r="65.9232" gradientTransform="matrix(1 0 0 0.9 0 7.9822)" gradientUnits="userSpaceOnUse">
		<stop  offset="0" style="stop-color:#F7C185"/>
		<stop  offset="0.3285" style="stop-color:#F7BA76"/>
		<stop  offset="0.968" style="stop-color:#F6A64D"/>
		<stop  offset="1" style="stop-color:#F6A54A"/>
	</radialGradient>
	<path class="st10" d="M344.98,26.5c-0.05-0.3-0.29-0.53-0.59-0.57c-0.27-0.04-27.14-3.32-33.51,18.22
		c-4.21-3.71-19.61-7.05-41.1-6.76c-21.49,0.29-36.79,4.05-40.9,7.88c-6.96-21.35-33.72-17.34-34-17.3
		c-0.3,0.05-0.53,0.29-0.57,0.59c-0.25,1.89,0.3,51.81,0.3,52.31c0.02,1.81,0.19,3.67,0.49,5.51c0.72,4.46,2.27,8.61,4.6,12.31
		c3.28,5.22,7.84,9.32,13.55,12.2c3.25,1.64,6.81,2.81,10.6,3.49c1.28,0.23,2.6,0.4,3.94,0.52l39.73,18.26
		c1.11,0.51,2.29,0.76,3.47,0.76c1.26,0,2.51-0.29,3.67-0.86l39.22-19.34c1.33-0.15,2.65-0.37,3.92-0.63
		c3.77-0.78,7.3-2.05,10.5-3.78c5.62-3.03,10.07-7.26,13.21-12.57c2.23-3.76,3.66-7.94,4.26-12.43c0.25-1.85,0.36-3.7,0.34-5.52
		C346.1,78.3,345.28,28.35,344.98,26.5z M296.55,71.2c1.2-2.34,2.86-4.18,4.93-5.47c2.06-1.29,4.42-1.96,7.01-2
		c0.07,0,0.14,0,0.21,0c2.5,0,4.81,0.61,6.85,1.8c2.1,1.24,3.81,3.03,5.07,5.34c1.27,2.32,1.94,5.1,1.99,8.25
		c0.04,3.16-0.55,5.95-1.76,8.3c-1.2,2.34-2.86,4.18-4.93,5.47c-2.06,1.29-4.42,1.96-7.01,1.99c-2.58,0.04-4.97-0.57-7.06-1.8
		c-2.1-1.23-3.81-3.03-5.07-5.34c-1.27-2.32-1.94-5.09-1.98-8.25C294.75,76.34,295.34,73.55,296.55,71.2z M245.93,80.16
		c0.04,3.16-0.55,5.95-1.76,8.3c-1.2,2.34-2.86,4.18-4.93,5.47c-2.06,1.29-4.42,1.96-7.01,2c-2.57,0.06-4.96-0.57-7.06-1.8
		c-2.1-1.23-3.81-3.03-5.07-5.34c-1.27-2.32-1.94-5.09-1.98-8.25c-0.04-3.15,0.55-5.95,1.76-8.3c1.2-2.34,2.86-4.18,4.93-5.47
		c2.07-1.29,4.42-1.96,7.01-1.99c0.07,0,0.14,0,0.21,0c2.5,0,4.81,0.61,6.85,1.8c2.1,1.23,3.81,3.03,5.07,5.34
		C245.22,74.23,245.89,77.01,245.93,80.16z"/>
</g>
</svg>
