<?xml version="1.0" standalone="no"?>
<!DOCTYPE svg PUBLIC "-//W3C//DTD SVG 20010904//EN"
 "http://www.w3.org/TR/2001/REC-SVG-20010904/DTD/svg10.dtd">
<svg version="1.0" xmlns="http://www.w3.org/2000/svg"
 width="638.000000pt" height="638.000000pt" viewBox="0 0 638.000000 638.000000"
 preserveAspectRatio="xMidYMid meet">
<metadata>
Created by potrace 1.14, written by Peter Selinger 2001-2017
</metadata>
<g transform="translate(0.000000,638.000000) scale(0.100000,-0.100000)"
fill="#000000" stroke="none">
<path d="M4547 4274 c-1 -1 -32 -5 -70 -9 -122 -12 -256 -68 -338 -142 -42
-38 -99 -120 -119 -173 -7 -19 -14 -36 -15 -37 -1 -2 -24 8 -51 22 -53 26
-182 63 -249 70 -22 3 -51 7 -65 10 -138 27 -687 27 -845 0 -222 -39 -310 -63
-383 -103 -24 -13 -45 -22 -46 -20 -2 2 -18 32 -37 68 -19 36 -58 89 -87 117
-56 55 -170 118 -231 128 -19 3 -38 8 -43 11 -26 16 -246 25 -281 11 -18 -7
-18 -31 -14 -570 3 -309 8 -573 11 -587 3 -14 8 -38 11 -55 21 -108 90 -229
180 -320 109 -109 260 -182 415 -201 48 -6 63 -11 155 -54 44 -21 107 -50 140
-65 33 -15 87 -40 120 -55 68 -31 155 -71 265 -123 168 -78 194 -88 234 -89
45 -1 69 10 604 276 139 69 270 128 290 131 122 19 243 69 344 142 55 40 158
150 158 170 0 7 4 13 8 13 12 0 66 121 78 175 1 6 7 30 13 55 10 41 8 459 -4
930 -7 289 -5 270 -34 271 -75 3 -112 4 -114 3z m-500 -776 c15 -6 31 -12 35
-12 23 -3 101 -84 120 -125 27 -57 29 -67 31 -166 2 -96 -19 -159 -71 -217
-53 -59 -104 -81 -189 -84 -87 -3 -138 14 -194 67 -62 58 -93 137 -92 234 0
44 5 99 12 122 22 80 102 158 191 187 30 9 129 6 157 -6z m-1528 -24 c76 -24
150 -110 177 -204 4 -13 6 -59 6 -101 -2 -149 -87 -267 -212 -294 -143 -31
-275 45 -324 185 -18 53 -15 209 4 260 1 3 2 8 1 13 0 4 4 7 9 7 6 0 10 6 10
13 0 15 38 57 82 90 61 47 161 59 247 31z"/>
</g>
</svg>
